<svg width="23" height="20" viewBox="0 0 23 20" fill="none" xmlns="http://www.w3.org/2000/svg">
<path d="M22.4065 6.29402C21.6184 5.60863 20.3359 5.60867 19.5475 6.29418C19.305 6.50523 17.7568 7.85262 17.5203 8.05848V3.41508C17.5203 2.94555 17.31 2.50414 16.9281 2.17215L15.0223 0.514844C14.6405 0.182813 14.1329 0 13.5929 0H2.02222C0.90757 0 0.000732422 0.788555 0.000732422 1.75781V18.2422C0.000732422 19.2114 0.90757 20 2.02222 20H15.4988C16.6134 20 17.5203 19.2114 17.5203 18.2422V13.0325L22.4065 8.77996C23.1965 8.09301 23.1967 6.98105 22.4065 6.29402ZM13.4773 1.17188C13.6046 1.17188 13.85 1.1527 14.0694 1.34348L15.9753 3.00078C16.1891 3.18676 16.1727 3.39055 16.1727 3.51562H13.4773V1.17188ZM16.1726 18.2422C16.1726 18.5653 15.8704 18.8281 15.4988 18.8281H2.02222C1.65067 18.8281 1.34839 18.5653 1.34839 18.2422V1.75781C1.34839 1.43473 1.65067 1.17188 2.02222 1.17188H12.1296V4.10156C12.1296 4.42516 12.4313 4.6875 12.8035 4.6875H16.1726V9.23137C16.1726 9.23137 14.1846 10.9615 14.1845 10.9616L13.2321 11.7898C13.1581 11.8541 13.1023 11.9326 13.0693 12.0189L12.1163 14.5048C12.0356 14.7154 12.0986 14.9475 12.2791 15.1044C12.4598 15.2616 12.7269 15.3161 12.9686 15.246L15.8275 14.4173C15.9267 14.3886 16.0169 14.3401 16.0908 14.2758L16.1726 14.2047V18.2422ZM14.6614 12.2042L15.6144 13.0328L15.2504 13.3493L13.821 13.7636L14.2974 12.5207L14.6614 12.2042ZM16.5671 12.204L15.6142 11.3754C16.1216 10.9338 18.3753 8.97234 18.8533 8.55637L19.8062 9.385L16.5671 12.204ZM21.4534 7.95148L20.7588 8.55602L19.8058 7.72738L20.5007 7.12266C20.7636 6.89418 21.191 6.89422 21.4537 7.12266C21.7163 7.35117 21.7177 7.7216 21.4534 7.95148Z" fill="white"/>
<path d="M12.8035 5.85938H3.36993C2.9978 5.85938 2.69611 6.12172 2.69611 6.44531C2.69611 6.76891 2.9978 7.03125 3.36993 7.03125H12.8035C13.1757 7.03125 13.4774 6.76891 13.4774 6.44531C13.4774 6.12172 13.1757 5.85938 12.8035 5.85938Z" fill="white"/>
<path d="M10.1082 8.20312H3.36993C2.9978 8.20312 2.69611 8.46547 2.69611 8.78906C2.69611 9.11266 2.9978 9.375 3.36993 9.375H10.1082C10.4803 9.375 10.782 9.11266 10.782 8.78906C10.782 8.46547 10.4803 8.20312 10.1082 8.20312Z" fill="white"/>
<path d="M10.1082 10.5469H3.36993C2.9978 10.5469 2.69611 10.8092 2.69611 11.1328C2.69611 11.4564 2.9978 11.7188 3.36993 11.7188H10.1082C10.4803 11.7188 10.782 11.4564 10.782 11.1328C10.782 10.8092 10.4803 10.5469 10.1082 10.5469Z" fill="white"/>
<path d="M10.1082 12.8906H3.36993C2.9978 12.8906 2.69611 13.153 2.69611 13.4766C2.69611 13.8002 2.9978 14.0625 3.36993 14.0625H10.1082C10.4803 14.0625 10.782 13.8002 10.782 13.4766C10.782 13.153 10.4803 12.8906 10.1082 12.8906Z" fill="white"/>
<path d="M12.8035 16.4844H8.76056C8.38843 16.4844 8.08673 16.7467 8.08673 17.0703C8.08673 17.3939 8.38843 17.6562 8.76056 17.6562H12.8035C13.1757 17.6562 13.4774 17.3939 13.4774 17.0703C13.4774 16.7467 13.1757 16.4844 12.8035 16.4844Z" fill="white"/>
</svg>
