<svg width="23" height="20" viewBox="0 0 23 20" fill="none" xmlns="http://www.w3.org/2000/svg">
<path d="M11.5 5.58987L3.2972 11.4702C3.2972 11.4785 3.2948 11.4907 3.29 11.5074C3.28531 11.5239 3.28281 11.5359 3.28281 11.5444V17.4988C3.28281 17.7138 3.3732 17.9001 3.55393 18.057C3.73461 18.214 3.94858 18.293 4.19586 18.293H9.67381V13.5293H13.3263V18.2932H18.8042C19.0514 18.2932 19.2657 18.2144 19.4461 18.057C19.6269 17.9003 19.7176 17.7139 19.7176 17.4988V11.5444C19.7176 11.5114 19.7124 11.4864 19.7032 11.4702L11.5 5.58987Z" fill="white"/>
<path d="M22.8413 9.97566L19.7172 7.7179V2.65651C19.7172 2.54081 19.6745 2.44565 19.5886 2.37118C19.5035 2.29679 19.3941 2.2596 19.2607 2.2596H16.5217C16.3885 2.2596 16.2791 2.29679 16.1934 2.37118C16.1079 2.44565 16.0652 2.54085 16.0652 2.65651V5.07552L12.5843 2.54476C12.2803 2.32972 11.9189 2.22223 11.5003 2.22223C11.0818 2.22223 10.7204 2.32972 10.4161 2.54476L0.158525 9.97566C0.0634368 10.0417 0.0113205 10.1306 0.00162682 10.2423C-0.00801693 10.3538 0.0252115 10.4513 0.101412 10.5339L0.985889 11.452C1.06209 11.5264 1.16182 11.5718 1.28549 11.5885C1.39967 11.5968 1.51385 11.5678 1.62802 11.5017L11.5 4.3436L21.3721 11.5016C21.4484 11.5593 21.5481 11.5881 21.6717 11.5881H21.7146C21.8381 11.5718 21.9376 11.526 22.0142 11.4518L22.8988 10.5339C22.9748 10.4511 23.0082 10.3538 22.9983 10.2421C22.9885 10.1307 22.9362 10.0418 22.8413 9.97566Z" fill="white"/>
</svg>
