<svg width="9" height="9" viewBox="0 0 9 9" fill="none" xmlns="http://www.w3.org/2000/svg">
<g clip-path="url(#clip0)">
<path d="M8.34375 0H0.65625C0.294375 0 0 0.294375 0 0.65625V1.59375C0 1.95562 0.294375 2.25 0.65625 2.25H8.34375C8.70562 2.25 9 1.95562 9 1.59375V0.65625C9 0.294375 8.70562 0 8.34375 0Z" fill="#4285F4"/>
<path d="M8.34375 6.75H0.65625C0.294375 6.75 0 7.04438 0 7.40625V8.34375C0 8.70562 0.294375 9 0.65625 9H8.34375C8.70562 9 9 8.70562 9 8.34375V7.40625C9 7.04438 8.70562 6.75 8.34375 6.75Z" fill="#4285F4"/>
<path d="M0.28125 4.3125H5.71875C5.874 4.3125 6 4.1865 6 4.03125C6 3.876 5.874 3.75 5.71875 3.75H0.28125C0.126 3.75 0 3.876 0 4.03125C0 4.1865 0.126 4.3125 0.28125 4.3125Z" fill="#4285F4"/>
<path d="M0.28125 5.4375H5.71875C5.874 5.4375 6 5.3115 6 5.15625C6 5.001 5.874 4.875 5.71875 4.875H0.28125C0.126 4.875 0 5.001 0 5.15625C0 5.3115 0.126 5.4375 0.28125 5.4375Z" fill="#4285F4"/>
<path d="M7.875 5.625C8.49632 5.625 9 5.12132 9 4.5C9 3.87868 8.49632 3.375 7.875 3.375C7.25368 3.375 6.75 3.87868 6.75 4.5C6.75 5.12132 7.25368 5.625 7.875 5.625Z" fill="#4285F4"/>
</g>
<defs>
<clipPath id="clip0">
<rect width="9" height="9" fill="white"/>
</clipPath>
</defs>
</svg>
