<svg width="18" height="16" viewBox="0 0 18 16" fill="none" xmlns="http://www.w3.org/2000/svg">
<path d="M8.53333 0C3.8279 0 0 3.58866 0 8C0 12.4113 3.8279 16 8.53333 16C13.2388 16 17.0667 12.4113 17.0667 8C17.0667 3.58866 13.2388 0 8.53333 0ZM11.1694 8.47134L7.61387 11.8047C7.4752 11.9347 7.29317 12 7.1111 12C6.92907 12 6.747 11.9347 6.60833 11.8047C6.3303 11.544 6.3303 11.1227 6.60833 10.862L9.66117 8L6.60837 5.138C6.33033 4.87734 6.33033 4.456 6.60837 4.19534C6.8864 3.93469 7.33583 3.93469 7.61387 4.19534L11.1694 7.52869C11.4475 7.78934 11.4475 8.21066 11.1694 8.47134Z" fill="white"/>
</svg>
