<svg width="15" height="17" viewBox="0 0 15 17" fill="none" xmlns="http://www.w3.org/2000/svg">
<path d="M13.982 11.98C12.9236 11.0748 12.3167 9.75163 12.3167 8.34983V6.375C12.3167 3.88238 10.4869 1.819 8.11667 1.47333V0.708333C8.11667 0.316625 7.80307 0 7.41667 0C7.03027 0 6.71667 0.316625 6.71667 0.708333V1.47333C4.34577 1.819 2.51667 3.88238 2.51667 6.375V8.34983C2.51667 9.75163 1.90977 11.0748 0.845072 11.9857C0.572772 12.2216 0.416672 12.5644 0.416672 12.9271C0.416672 13.6106 0.966172 14.1667 1.64167 14.1667H13.1917C13.8672 14.1667 14.4167 13.6106 14.4167 12.9271C14.4167 12.5644 14.2606 12.2216 13.982 11.98Z" fill="white"/>
<path d="M7.41666 17C8.68436 17 9.74486 16.0855 9.98846 14.875H4.84486C5.08846 16.0855 6.14896 17 7.41666 17Z" fill="white"/>
</svg>
