<svg width="23" height="20" viewBox="0 0 23 20" fill="none" xmlns="http://www.w3.org/2000/svg">
<path d="M0.000137719 8.3529C-0.00986755 9.30688 0.526107 10.1654 1.34043 10.5V6.41178C1.34043 6.35295 1.36722 6.26473 1.36722 6.2059C0.5474 6.53771 0.00213877 7.39407 0.000137719 8.3529Z" fill="white"/>
<path d="M7.31825 13.4117H3.80661L5.12012 18.6469C5.31464 19.4459 5.97478 20.0012 6.72851 19.9999C7.26479 20.0068 7.77219 19.7339 8.09564 19.2646C8.42222 18.818 8.52294 18.2216 8.36368 17.6764L7.31825 13.4117Z" fill="white"/>
<path d="M1.36728 6.17639H1.39406V6.147C1.39406 6.17639 1.39406 6.17639 1.36728 6.17639Z" fill="white"/>
<path d="M20.5875 5.76465H20.373V11.0587H20.5875C21.9199 11.0587 23 9.8736 23 8.41172C23 6.94978 21.9199 5.76465 20.5875 5.76465Z" fill="white"/>
<path d="M2.14465 6.41169V10.5881C2.17364 11.6697 2.98135 12.5298 3.96746 12.5293H8.84624V4.58817H3.96746C3.00244 4.58817 2.14465 5.35288 2.14465 6.41169Z" fill="white"/>
<path d="M9.65039 12.6469L19.5687 16.9999V0L9.65039 4.35293V12.6469Z" fill="white"/>
</svg>
