<svg width="9" height="9" viewBox="0 0 9 9" fill="none" xmlns="http://www.w3.org/2000/svg">
<path d="M8.47266 3.20941V2.37305C8.47266 1.93688 8.11781 1.58203 7.68164 1.58203H7.26351L5.75889 0.0774141C5.75858 0.0770977 5.75821 0.0767988 5.75789 0.0764648C5.71115 0.0300937 5.64623 0.0012832 5.57634 0.000193359C5.57497 0.000175781 5.57365 0 5.57228 0H1.8457C1.70009 0 1.58203 0.118055 1.58203 0.263672V1.58203H1.31836C0.882193 1.58203 0.527344 1.93688 0.527344 2.37305V3.20941C0.220447 3.31826 0 3.61134 0 3.95508V7.1543C0 7.59046 0.35485 7.94531 0.791016 7.94531H1.58203V8.73633C1.58203 8.88195 1.70009 9 1.8457 9H7.1543C7.29991 9 7.41797 8.88195 7.41797 8.73633V7.94531H8.20898C8.64515 7.94531 9 7.59046 9 7.1543V3.95508C9 3.61134 8.77955 3.31826 8.47266 3.20941ZM7.41797 2.10938H7.68164C7.82703 2.10938 7.94531 2.22766 7.94531 2.37305V3.16406H7.41797V2.10938ZM5.83594 0.900229L6.51774 1.58203H5.83594V0.900229ZM2.10938 0.527344H5.30859V1.8457C5.30859 1.99132 5.42665 2.10938 5.57227 2.10938H6.89062V3.16406H2.10938V0.527344ZM1.05469 2.37305C1.05469 2.22766 1.17297 2.10938 1.31836 2.10938H1.58203V3.16406H1.05469V2.37305ZM6.89062 8.47266H2.10938V5.83594H6.89062V8.47266ZM8.47266 7.1543C8.47266 7.29969 8.35437 7.41797 8.20898 7.41797H7.41797V5.83594H7.68164C7.82726 5.83594 7.94531 5.71788 7.94531 5.57227C7.94531 5.42665 7.82726 5.30859 7.68164 5.30859C7.46638 5.30859 1.6212 5.30859 1.31836 5.30859C1.17274 5.30859 1.05469 5.42665 1.05469 5.57227C1.05469 5.71788 1.17274 5.83594 1.31836 5.83594H1.58203V7.41797H0.791016C0.645627 7.41797 0.527344 7.29969 0.527344 7.1543V3.95508C0.527344 3.80969 0.645627 3.69141 0.791016 3.69141C1.10992 3.69141 7.84566 3.69141 8.20898 3.69141C8.35437 3.69141 8.47266 3.80969 8.47266 3.95508V7.1543Z" fill="#4285F4"/>
<path d="M6.09961 6.36328H2.90039C2.75477 6.36328 2.63672 6.48134 2.63672 6.62695C2.63672 6.77257 2.75477 6.89062 2.90039 6.89062H6.09961C6.24523 6.89062 6.36328 6.77257 6.36328 6.62695C6.36328 6.48134 6.24523 6.36328 6.09961 6.36328Z" fill="#4285F4"/>
<path d="M6.09961 7.41797H2.90039C2.75477 7.41797 2.63672 7.53602 2.63672 7.68164C2.63672 7.82726 2.75477 7.94531 2.90039 7.94531H6.09961C6.24523 7.94531 6.36328 7.82726 6.36328 7.68164C6.36328 7.53602 6.24523 7.41797 6.09961 7.41797Z" fill="#4285F4"/>
<path d="M1.8457 4.21875H1.31836C1.17274 4.21875 1.05469 4.3368 1.05469 4.48242C1.05469 4.62804 1.17274 4.74609 1.31836 4.74609H1.8457C1.99132 4.74609 2.10938 4.62804 2.10938 4.48242C2.10938 4.3368 1.99132 4.21875 1.8457 4.21875Z" fill="#4285F4"/>
</svg>
