<svg width="23" height="20" viewBox="0 0 23 20" fill="none" xmlns="http://www.w3.org/2000/svg">
<path d="M22.0267 16.2003C22.0163 16.0822 21.9555 15.9686 21.856 15.8839L13.2507 8.401C13.5892 7.70747 13.7679 6.9564 13.7679 6.1802C13.7679 4.66327 13.0875 3.236 11.856 2.16247C10.6228 1.09107 8.98255 0.5 7.23708 0.5C5.49077 0.5 3.8534 1.09127 2.61814 2.16333C0.0695128 4.37833 0.0689761 7.98107 2.61776 10.1959C3.85294 11.2702 5.49084 11.8619 7.23623 11.8619C8.12909 11.8619 8.99067 11.7052 9.79015 11.4104L12.6172 13.8705C12.7348 13.9715 12.8899 14.0251 13.0572 14.0204L14.5978 13.9734L14.5476 15.3164C14.5428 15.4581 14.6016 15.5959 14.7197 15.6968C14.8334 15.7976 14.9933 15.8524 15.1555 15.8467L16.7018 15.8007L16.6463 17.1423C16.6415 17.2841 16.7041 17.4222 16.8179 17.5231C16.9355 17.6239 17.0725 17.6781 17.2579 17.6731L18.8004 17.6275L18.7487 18.9693C18.7397 19.1181 18.8117 19.2612 18.9341 19.3628C19.047 19.4521 19.1878 19.5001 19.3362 19.5001C19.3575 19.5001 19.3794 19.4993 19.4012 19.4977L21.7664 19.2693C22.086 19.2389 22.3188 18.9909 22.2913 18.7124L22.0267 16.2003ZM6.4481 5.49433C5.72161 6.1254 4.54708 6.1254 3.82212 5.49433C3.09608 4.86307 3.09608 3.84193 3.82212 3.21127C4.54708 2.5806 5.72123 2.58 6.4481 3.21107C7.17314 3.84167 7.17268 4.86347 6.4481 5.49433ZM20.0077 16.3717C19.9213 16.4467 19.8057 16.4842 19.6933 16.4842C19.5809 16.4842 19.4651 16.4467 19.3789 16.3717L12.0571 10.0031C12.261 9.81193 12.4463 9.61073 12.6147 9.3992L20.0076 15.8265C20.1802 15.9767 20.1802 16.2216 20.0077 16.3717Z" fill="#CDCDCD"/>
</svg>
